<?xml version="1.0" encoding="utf-8"?>
<!-- Generator: Adobe Illustrator 22.1.0, SVG Export Plug-In . SVG Version: 6.00 Build 0)  -->
<svg version="1.1" id="레이어_1" xmlns="http://www.w3.org/2000/svg" xmlns:xlink="http://www.w3.org/1999/xlink" x="0px"
	 y="0px" viewBox="0 0 160 52" style="enable-background:new 0 0 160 52;" xml:space="preserve">
<style type="text/css">
	.st0{fill:#FFFFFF;}
</style>
<g>
	<path class="st0" d="M35.8,52H24.3V33.3c0-1.4-0.1-2.9-0.2-4.3c-0.1-1.4-0.4-2.5-0.8-3.2c-0.4-0.8-1-1.4-1.9-1.7
		c-0.8-0.4-2-0.5-3.4-0.5c-1,0-2.1,0.2-3.2,0.5c-1.1,0.3-2.2,0.9-3.5,1.6V52H0V14.4h11.5v4.9c2-1.6,4-2.8,5.9-3.7
		c1.9-0.8,3.9-1.3,6.2-1.3c3.8,0,6.9,1.1,9,3.4c2.2,2.2,3.3,5.6,3.3,10.1V52z"/>
	<path class="st0" d="M63.1,20.4c3.9,3.9,5.8,8.1,5.8,12.6c0,4.5-2.1,8.8-6.2,12.9c-4.1,4.1-8.4,6.1-12.9,6.2
		c-4.5,0-8.7-1.9-12.6-5.8c-3.9-3.9-5.8-8.1-5.8-12.6s2.1-8.8,6.2-12.8c4.1-4.1,8.4-6.2,12.9-6.2C55,14.6,59.2,16.5,63.1,20.4z
		 M59.5,35.4c-0.1-1.1-0.5-2.2-1.1-3.3c-0.6-1.1-1.7-2.4-3.2-3.9c-1.4-1.4-2.7-2.4-3.9-3.1c-1.2-0.7-2.3-1.1-3.3-1.2
		c-1-0.1-2,0-2.8,0.4c-0.9,0.4-1.7,1-2.4,1.7c-0.7,0.7-1.3,1.5-1.6,2.2c-0.4,0.8-0.5,1.7-0.5,2.8c0.1,1,0.5,2.1,1.1,3.3
		c0.7,1.2,1.7,2.6,3.2,4c1.3,1.3,2.5,2.3,3.7,3c1.2,0.7,2.3,1.1,3.3,1.2c1,0.1,1.9,0,2.8-0.4c0.9-0.4,1.7-1,2.5-1.8
		c0.7-0.7,1.2-1.5,1.6-2.3C59.5,37.3,59.7,36.4,59.5,35.4z"/>
	<path class="st0" d="M87.2,47.3c-0.6,0.5-1.4,1-2.3,1.7c-0.9,0.7-1.8,1.2-2.6,1.6c-1.1,0.5-2.3,0.9-3.5,1.1c-1.2,0.2-2.5,0.4-4,0.4
		c-3.4,0-6.2-1-8.5-3.1c-2.3-2.1-3.4-4.8-3.4-8c0-2.6,0.6-4.7,1.7-6.4c1.2-1.7,2.8-2.9,4.9-3.9c2.1-1,4.7-1.6,7.9-2
		c3.1-0.4,6.4-0.7,9.7-0.9v-0.2c0-2-0.8-3.3-2.4-4.1c-1.6-0.8-4-1.1-7.1-1.1c-1.9,0-3.9,0.3-6,1c-2.1,0.7-3.7,1.2-4.6,1.5h-1v-8.6
		c1.2-0.3,3.2-0.7,5.9-1.1c2.7-0.4,5.4-0.7,8.2-0.7c6.5,0,11.2,1,14.1,3c2.9,2,4.3,5.1,4.3,9.4l0,25.2H87.1L87.2,47.3z M87.2,41.7
		v-7.4c-1.5,0.1-3.2,0.3-5,0.5c-1.8,0.2-3.2,0.5-4.1,0.8c-1.1,0.4-2,0.9-2.6,1.6c-0.6,0.7-0.9,1.6-0.9,2.7c0,0.7,0.1,1.3,0.2,1.8
		c0.1,0.5,0.5,0.9,1,1.3c0.5,0.4,1.1,0.7,1.7,0.9c0.7,0.2,1.7,0.3,3.2,0.3c1.1,0,2.3-0.2,3.5-0.7C85.2,43.1,86.3,42.5,87.2,41.7z"/>
	<g>
		<path class="st0" d="M112.6,20.6c-0.4,0.3-0.8,0.6-1.3,0.9c-0.5,0.4-1,0.6-1.5,0.8c-0.7,0.3-1.3,0.5-2,0.6
			c-0.7,0.1-1.5,0.2-2.3,0.2c-2,0-3.6-0.6-5-1.7c-1.3-1.1-2-2.6-2-4.4c0-1.4,0.3-2.6,1-3.5c0.7-0.9,1.6-1.6,2.9-2.1
			c1.2-0.5,2.8-0.9,4.6-1.1c1.8-0.2,3.7-0.4,5.7-0.5V9.8c0-1.1-0.5-1.8-1.4-2.2c-0.9-0.4-2.3-0.6-4.1-0.6c-1.1,0-2.3,0.2-3.5,0.5
			c-1.2,0.4-2.1,0.6-2.7,0.8h-0.6V3.7c0.7-0.2,1.9-0.4,3.4-0.6c1.6-0.2,3.2-0.4,4.8-0.4c3.8,0,6.5,0.5,8.2,1.6
			c1.7,1.1,2.5,2.8,2.5,5.1v13.7h-6.6V20.6z M112.6,17.6v-4c-0.9,0.1-1.9,0.2-2.9,0.3c-1,0.1-1.9,0.3-2.4,0.4
			c-0.7,0.2-1.2,0.5-1.5,0.9c-0.3,0.4-0.5,0.9-0.5,1.5c0,0.4,0,0.7,0.1,1c0.1,0.3,0.3,0.5,0.6,0.7c0.3,0.2,0.6,0.4,1,0.5
			c0.4,0.1,1,0.2,1.8,0.2c0.7,0,1.4-0.1,2-0.4C111.5,18.4,112.1,18,112.6,17.6z"/>
		<path class="st0" d="M137,22.7c-0.7,0.2-1.5,0.3-2.3,0.4c-0.8,0.1-1.8,0.1-2.9,0.1c-2.6,0-4.5-0.5-5.8-1.4c-1.3-1-1.9-2.6-1.9-4.9
			V8h-2.7V3.9h2.7V0h6.7v3.9h6.2V8h-6.2v6.7c0,0.7,0,1.2,0,1.7c0,0.5,0.1,0.9,0.3,1.3c0.2,0.4,0.5,0.7,0.9,0.9
			c0.4,0.2,1.1,0.4,1.9,0.4c0.3,0,0.8-0.1,1.4-0.2c0.6-0.1,1-0.3,1.2-0.4h0.5V22.7z"/>
		<path class="st0" d="M159.2,16.5c0,2-1,3.6-2.9,4.8c-1.9,1.2-4.6,1.8-7.9,1.8c-1.8,0-3.5-0.2-5-0.5c-1.5-0.3-2.7-0.7-3.6-1.1v-5.1
			h0.6c0.3,0.2,0.7,0.5,1.2,0.7c0.4,0.3,1.1,0.5,1.9,0.8c0.7,0.3,1.5,0.5,2.4,0.7c0.9,0.2,1.8,0.3,2.8,0.3c1.3,0,2.3-0.1,2.9-0.4
			c0.6-0.3,0.9-0.7,0.9-1.2c0-0.5-0.2-0.8-0.6-1c-0.4-0.2-1.1-0.4-2.1-0.6c-0.5-0.1-1.2-0.2-2-0.3c-0.8-0.1-1.6-0.3-2.3-0.4
			c-1.9-0.5-3.3-1.2-4.2-2.1c-0.9-1-1.4-2.2-1.4-3.6c0-1.9,1-3.4,2.8-4.7c1.9-1.2,4.5-1.9,7.8-1.9c1.6,0,3,0.1,4.5,0.4
			c1.4,0.3,2.5,0.6,3.3,0.9V9h-0.6c-1-0.6-2.1-1.1-3.4-1.5c-1.3-0.4-2.5-0.6-3.8-0.6c-1.1,0-2,0.1-2.7,0.4c-0.7,0.3-1.1,0.7-1.1,1.2
			c0,0.5,0.2,0.8,0.5,1c0.3,0.2,1.1,0.5,2.4,0.7c0.7,0.1,1.4,0.2,2.2,0.4c0.8,0.1,1.6,0.3,2.4,0.5c1.8,0.4,3,1.1,3.9,2
			C158.8,14,159.2,15.2,159.2,16.5z"/>
	</g>
</g>
</svg>
